<svg version="1.1" id="Layer_1" xmlns="http://www.w3.org/2000/svg" xmlns:xlink="http://www.w3.org/1999/xlink" x="0px" y="0px"
	 viewBox="0 0 150 50" style="enable-background:new 0 0 150 50;" xml:space="preserve">
<style type="text/css">
	.st0{fill:#3296B8;}
	.st1{fill:#FEC658;}
	.st2{fill:#CE1141;}
	.st3{fill:#FFFFFF;}
</style>
<rect x="0.3" class="st0" width="49.8" height="50"/>
<rect x="50" class="st1" width="49.8" height="50"/>
<rect x="99.8" class="st2" width="49.8" height="50"/>
<path d="M41.4,21.9c-0.2-0.5-0.4-0.9-0.5-1.3c-0.4-0.5-0.5-1.2-0.9-1.7c0.1-0.4-0.4-0.5-0.4-0.9h-0.1c-0.4-0.7-0.7-1.4-1.1-2.1
	c-0.3-0.5-0.6-0.9-0.9-1.3c-0.5-0.9-1.1-1.8-1.7-2.7c-0.3-0.5-0.6-0.9-0.9-1.3c0-0.3-0.2-0.3-0.2-0.5c-0.3-0.6-1-0.4-1.6-0.4
	C33,9.8,32.8,10,32.6,10c-0.6,0.9-1.5,1.6-2,2.6c-0.2,0.3-0.4,0.7-0.7,0.8c0,0.3-0.2,0.5-0.4,0.7c-0.1,0.4-0.1,0.7,0.2,1.1
	c0.2,0.2,0.4,0.5,0.6,0.6c-0.2,0,0,0.3-0.3,0.2c-0.1,0.1-0.3,0.3-0.4,0.4c0.1,0.2-0.3,0.2-0.2,0.4c-0.1,0.4-0.6,0.2-0.8,0.2
	c-0.3,0.2-0.5-0.3-0.9-0.1c-0.1-0.3-0.5,0-0.6-0.2c-0.1-0.1-0.5,0.1-0.6-0.1c-0.4,0.1-0.7-0.2-1.2-0.1c-0.2-0.3-0.7,0-0.8-0.3V16
	c-0.1-0.1-0.4,0-0.4-0.1c-0.7,0.1-1.2-0.3-1.7-0.2v-0.1h-1.1l-0.1-0.1c-0.5,0-1.1,0-1.6-0.1c-0.1,0.2-0.2-0.1-0.2,0.1
	c-0.1,0-0.3,0.1-0.3-0.1c-0.2,0.2-0.7,0.1-0.9,0.1c-0.6-0.1-1.3-0.1-1.9,0v0.1c-0.7,0.2-1.3,0.7-1.7,1.3c-0.1,0-0.2,0.1-0.1,0.2
	c-0.2,0.3-0.4,0.7-0.5,1c-0.2,0.3,0.1,0.8-0.2,1.1c0.1,0.4-0.1,0.7,0,1.1c-0.2,0.7-0.3,1.3-0.5,2c-0.4,0-0.4,0.4-0.7,0.4
	C12.5,23,12.1,23,12,23.3c-0.2-0.1-0.2,0.3-0.5,0.2c-0.2,0.2-0.4,0.4-0.6,0.6c-0.1,0.1-0.1,0.3-0.3,0.2c-0.1,0.3-0.3,0.5-0.4,0.8
	l0,0c0.1,0.5,0.3,1,0.4,1.4c0,0.7,0.1,1.4,0.4,2c0.1,0,0.4,0.1,0.4,0.2h0.1c0.1,0,0.1,0.1,0.1,0.1c0.1,0,0.2,0,0.2,0.1
	c-0.2,0.8-0.2,1.7-0.1,2.5c0.2,0.4,0.4,0.8,0.7,1.1c0.1,0.1,0.3,0,0.2,0.2c0.2,0.1,0.4,0.1,0.6,0.3c0.3-0.1,0.5,0.2,0.8,0.1
	c0.2,0.2,0.7,0.1,1.1,0.1c0,0.8,0.2,1.6,0.6,2.3c0.1,0.3,0.5,0.5,0.6,0.7c0.1,0,0.2,0,0.2,0.1l0,0c0.4,0,0.5,0.3,0.9,0.3
	c0.5,0,1-0.1,1.5-0.4c0.3,0.5,0.3,0.9,0.5,1.4c0.2,0,0.2,0.2,0.3,0.4c0.1,0.2,0.3,0.3,0.5,0.4c0.5,0.2,1,0.2,1.4,0
	c0.5-0.1,1.1-0.2,1.6-0.3c1.1-0.3,2.4,0.2,3.4-0.4c0.3-0.2,0.5-0.4,0.8-0.6c0.3-0.2,0.6-0.5,0.8-0.8c0.2-0.4,0.5-0.7,0.8-1
	c0.2-0.2,0.5-0.5,0.7-0.7s0.6-0.4,0.9-0.6c0.3-0.2,0.4-0.5,0.8-0.6c0.1,0,0-0.2,0.2-0.2c0.3-0.3,0.7-0.5,1-0.8
	c0.2-0.3,0.6-0.4,0.8-0.8c0.3,0,0.3-0.4,0.6-0.5c0-0.2,0.3-0.2,0.3-0.3c0.6-0.7,1.5-1.3,1.7-2.4c0-0.2,0.3-0.2,0.3-0.4
	c-0.1-0.4-0.1-0.8-0.2-1.1c0-0.2,0.3-0.1,0.4-0.2c0.4,0.1,0.4-0.4,0.8-0.4c0,0,0.1,0,0.1,0.1c0,0,0,0,0,0.1h0.1c0.1,0,0.2,0,0.2,0.1
	H38c0,0.3,0.5,0.1,0.7,0.1v-0.1c0.9-0.2,1.7-0.6,2.4-1.2c0.3-0.1,0.5-0.5,0.8-0.5c0.1-0.3,0.4-0.4,0.6-0.6c0.1,0,0.1-0.1,0.1-0.2
	C42.1,23.2,41.8,22.5,41.4,21.9z"/>
<path class="st3" d="M13.9,28.1c0.6,0,0.2-0.5,0.2-0.7c-0.2-0.9-0.5-1.8-0.9-2.7c-0.1-0.3-0.2-0.7-0.5-0.8c-0.5,0.4-1,0.8-1.5,1.2
	c-0.2,0.7,0.2,1.3,0.3,1.9c0.1,0.2,0,0.6,0.2,0.7c0.1,0,0,0.1,0,0.1h0.1c0.1,0,0.2,0,0.2,0.1c0,0,0.3,0.3,0.5,0.1
	C13,28.1,13.5,28.1,13.9,28.1z M34.3,28.5L34.3,28.5C34.3,28.5,34.3,28.5,34.3,28.5L34.3,28.5z M36.3,23.8c-0.1-0.3-0.3-0.7-0.5-1
	c-0.5-0.6-0.9-1.5-1.5-2.1c-0.4-0.7-0.7-1.1-1.1-1.7c-0.5-0.5-0.9-1-1.3-1.6c-0.4-0.2-0.6-0.7-0.9-0.9c0,0.2-0.2,0.1-0.3,0.1
	c-0.2,0.2-0.5,0.3-0.4,0.6c0.7,0.7,1.3,1.5,1.8,2.3c0.6,1.1,1.4,2.3,1.8,3.5c0.2,0.8,0.8,1.1,1.1,1.8c0.5,0.2,0.4,1.1,1,0.8
	c0.4-0.2,0.7-0.5,0.9-0.9C36.5,24.4,36.4,24.1,36.3,23.8L36.3,23.8z M34.8,26.9c-0.2-0.2,0-0.5-0.1-0.7c-0.1-0.4-0.4-0.7-0.6-1.1
	c-0.2,0.1-0.2-0.3-0.3-0.3c-0.1-0.1-0.1-0.3-0.3-0.3c-0.6-0.9-1.1-1.8-1.6-2.8c-0.2-0.5-0.5-1-0.9-1.5c-0.3-0.6-0.7-1.2-1.2-1.7
	c-0.4-0.1-0.4-0.6-0.9-0.5c-0.1,0-0.2,0-0.2-0.1l-0.5-0.1l0,0l-0.5-0.1l0,0c-0.1,0-0.3,0-0.4-0.2c-0.4,0-0.8-0.1-1.2-0.2
	c-0.2,0-0.4,0.1-0.4-0.1c-0.6,0.1-0.9-0.2-1.5-0.2v-0.1c-0.3,0-0.7,0.1-0.9-0.1c-0.7,0.1-1-0.2-1.7-0.1v-0.1H20
	c-0.4-0.4-0.8,0.2-1.4,0l0,0l-0.5-0.1v-0.1c-0.3,0.1-0.7-0.1-0.9,0.1c-0.1,0-0.1,0-0.1-0.1l0,0c-0.1,0.1-0.3,0.1-0.4,0.1v0.1
	c-0.4-0.1-0.5,0.4-0.9,0.4c-0.2,0.2-0.4,0.4-0.6,0.6c-0.1,0.3-0.1,0.7-0.2,1.1c-0.2,0.8-0.4,1.4-0.5,2.2c-0.1,0.5-0.2,0.9-0.4,1.4
	c0,0.5-0.6,1.2-0.1,1.8c0,0.3,0.2,0.5,0.2,0.8c0.3,0.7,0.5,1.4,0.7,2.2c0.1,0.3,0.2,0.7,0.3,1c0.4,0.4,0.7,0.2,1.4,0.3v-0.1
	c0.2,0,0.1-0.2,0.3-0.1c-0.1-0.2,0.2-0.2,0.2-0.5c0-0.2,0.1-0.4,0.1-0.6c0-0.9-0.1-1.7-0.4-2.5c-0.1-0.4-0.4-0.5-0.2-1
	c0.2-0.2,0.4-0.3,0.6-0.3c0.3,0.1,0.3-0.2,0.6-0.2c0.5-0.4,0.9-0.7,1.4-0.9c0-0.2,0.2-0.3,0.4-0.3l0.5,1.1c0.1,0.2,0.3,0.4,0.4,0.6
	s0.4,0.4,0.6,0.5c0.6,0.7,1.3,1.2,2.2,1.4c0,0.2,0.3,0,0.3,0.2c0.1,0,0.3,0,0.4,0v0.1c0.2,0,0.4,0,0.4,0.1v-0.1l0.1,0.1
	c0.1,0,0.3,0,0.4,0l0,0c0.7-0.1,1.7,0.2,2.2-0.2c0.4,0.1,0.7-0.3,1.1-0.1l0,0h0.2l0,0c0.3,0,0.3,0.2,0.4,0.3
	c0.2,0.3-0.1,0.4-0.1,0.7c-0.1,0.1-0.2,0.2-0.3,0.3c0,0.1-0.1,0.1-0.2,0.1c-0.1,0.2-0.6,0.1-0.9,0.1c-0.1,0-0.1-0.1-0.1-0.1
	c-0.1,0-0.2,0-0.3-0.1h-0.3C26.4,27.1,26,27,25.8,27c0,0.2-0.2,0.1-0.3,0.1c-0.3-0.2-0.7-0.1-1.1-0.1c-0.1-0.2-0.3-0.1-0.4-0.2
	c0,0,0,0,0-0.1l-0.5-0.1v-0.1c-0.1,0-0.3,0-0.4,0c-0.1-0.2-0.4-0.2-0.5-0.3c-0.4,0-0.5-0.5-0.8-0.4c-0.1,0.1-0.1,0.3-0.2,0.5
	c-0.2,0.2-0.2,0.3-0.1,0.5s0.2,0.3,0.3,0.4c0.1,0.1,0,0.3,0.2,0.3c0.1,0.4,0.1,0.8-0.1,1.2h0.3c0.1,0.3,0.5,0,0.5,0.2
	c0.1,0,0.1,0,0.2,0c0.1,0.1,0.4,0,0.4,0.2c0.3,0.1,0.6,0.2,0.8,0.4c0.2,0.1,0.4,0.3,0.4,0.5c0.2,0.5-0.2,0.8-0.2,1.3
	c0.4,0.2,0.9,0.4,1.2,0.7l0.1,0.1c0.1,0.2,0.2,0.2,0.3,0.3c0.5,0.6,0.7,1.5,0.4,2.2l-0.2,0.1c-0.1,0.3-0.5,0.5-0.7,0.6
	c-0.1,0.3-0.4-0.1-0.4,0.1l-0.1-0.1c-0.1,0-0.3,0-0.4-0.2c-0.2-0.4,0.3-0.7,0.5-1c0.1-0.4,0-0.8-0.2-1.2c-0.3-0.4-0.7-0.6-1.1-0.8
	c0-0.1-0.1-0.2-0.2-0.2c-0.2,0-0.4,0.1-0.5-0.2c0.1-0.2,0.1-0.4,0.2-0.4c0.3-0.5-0.1-1-0.3-1.3c-0.2,0-0.5-0.1-0.7-0.2h-0.9
	c-0.2,0-0.5-0.2-0.5,0l-0.1-0.1L20.6,30l-0.2-0.2c-0.1-0.3-0.1-0.6,0.1-0.8c0.1-0.3,0-0.6-0.2-0.9c-0.2-0.1-0.4-0.3-0.5-0.5h-0.3
	c-0.4-0.2-0.9-0.1-1.4-0.1c0,0.1,0,0.3-0.1,0.4s0.1,0.3-0.2,0.3v0.2c-0.3,0.1-0.1,0.6-0.6,0.5c-0.3,0.5-1,0.2-1.5,0.3
	c-0.5,0-0.5-0.6-1-0.4v0.1c-0.1,0.1-0.2,0-0.3,0V29c-0.3,0-0.4,0.3-0.7,0.2c-0.3,0.2-1-0.2-1.1,0.5c-0.2,0.7,0,1.4,0.5,1.9
	c0.2-0.1,0.2,0.1,0.4,0.2s0.4,0.2,0.6,0.3c0.2,0.1,0.4-0.1,0.5,0.1h0.3c0,0,0,0,0.1,0.1c0.2,0.1,0.4-0.1,0.5,0.2
	c1.3,0.1,0.1,1.6,0.7,2.2c0.1,0.2,0.3,0.4,0.4,0.5c0.2-0.1,0.1,0.1,0.2,0.2c0.2,0.1,0.3,0.2,0.4,0.3c0.1,0,0.3,0,0.4,0v0.1
	c0.1-0.1,0.1,0,0.2,0c0-0.2,0.4-0.1,0.5-0.1c-0.1-0.2,0.2-0.1,0.2-0.2c0.1-0.1,0.3-0.2,0.4-0.2c0.1-0.4,0.7-0.3,0.8-0.6
	c0.3-0.1,0.4-0.4,0.7-0.4v-0.1c0-0.1,0.1,0,0.2,0v-0.1c0-0.1,0.1,0,0.1,0V34c0.1-0.1,0.1,0,0.2,0c0.1-0.2,0.3-0.1,0.4-0.3
	c0.4,0,0.4-0.4,0.7-0.5c0.1-0.2,0.2-0.3,0.4-0.1c0.4,0.1,0.3,0.6,0.3,0.9c-0.2,0.2-0.3,0.6-0.6,0.6v0.1c0,0.1-0.1,0-0.2,0v0.1
	c-0.3,0.1-0.4,0.4-0.8,0.4c-0.3,0.4-0.9,0.4-1.2,0.8c-0.2,0.5,0.2,0.8,0.2,1.2c0.1,0,0.1,0.1,0.1,0.2c0.3,1.1,1.2,0.1,1.9,0.3
	c0.5,0,0.8-0.3,1.4-0.2v-0.1c0.4,0,0.7-0.2,1-0.3c0.4,0.2,0.9,0.1,1.3-0.1c0.2-0.1,0.4-0.3,0.6-0.5c0.3-0.1,0.4-0.3,0.6-0.5
	c0.1-0.1,0.2-0.2,0.3-0.3v-0.1c0-0.1,0.1,0,0.1,0c0.1-0.3,0.3-0.4,0.5-0.7c0.3-0.7,1-1.1,1.6-1.5c0.4-0.3,0.8-0.7,1.1-1
	c0.2-0.1,0.4-0.3,0.6-0.4c0.1-0.2,0.2-0.3,0.4-0.4c0.2-0.2,0.4-0.4,0.6-0.6c0.2-0.2,0.4-0.4,0.5-0.7c0.6-0.5,1-1,1.4-1.7
	c0-0.2,0.2-1,0.2-0.9C34.6,27.4,34.8,27.1,34.8,26.9L34.8,26.9C34.6,26.9,34.6,26.9,34.8,26.9L34.8,26.9z M18,24.8
	c-0.1,0.5,0.4,0.9,0.2,1.4c0,0.1,0,0.3,0.2,0.3s0.6-0.2,0.9,0c0.1-0.2,0.6,0,0.7-0.2c0.4-0.3,0.5-0.8,0.3-1.3
	c-0.2-0.3-0.5-0.3-0.6-0.7c-0.3-0.2-0.7-0.1-1.1-0.1v0.1c-0.3-0.1-0.4,0.3-0.8,0.2C17.9,24.6,17.8,24.8,18,24.8L18,24.8z"/>
<path d="M30,27.6c0.3-0.1,0.3,0.2,0.5,0.4c-0.1,0.3-0.2,0.9-0.6,0.9L29.2,29c0-0.2-0.2-0.1-0.3-0.2c-0.3-0.2-0.7-0.4-0.4-0.9
	c0.4-0.3,1-0.4,1.5-0.4V27.6z"/>
<path d="M94.8,21.6c-1.1-2.2-1.4-4.9-2.6-7.2c-0.2-0.7-0.5-1.3-0.8-2c-0.3-0.2-0.4-0.7-0.6-0.9c-0.6-0.6-0.7-1.5-1.5-1.8
	c0-0.2-0.3-0.2-0.3-0.3h-0.1c-0.2-0.1-0.4-0.1-0.5-0.2c-0.3-0.2-0.1,0.2-0.3,0.2c-0.1,0,0-0.1,0-0.1c-0.2,0.2-0.6,0.1-0.8,0.1v0.1
	c-0.1,0.1-0.3,0-0.4,0v0.1c-0.3-0.1-0.2,0.3-0.6,0.2c-0.2,0.1-0.3,0.2-0.4,0.4l-0.1-0.1c0,0.1-0.1,0.2-0.2,0.1v0.1
	c-0.4,0-0.3,0.3-0.6,0.4c0,0.2-0.4,0.2-0.3,0.4c-0.1,0-0.4,0.3-0.6,0.4c-0.3,0.3-0.5,0.7-0.6,1.1c-0.2,0-0.2,0.2-0.5,0.2
	c-0.3,0.2-0.6,0.4-0.7,0.8c-0.3,0.3-0.4,0.6-0.3,1c0.5,0.3-0.2,0.6-0.4,0.8c-0.4,0.1-0.7,0.1-1.1,0.1c-1.5,0.2-3.2,0-4.7,0.1
	c-0.1,0-0.1-0.1-0.1-0.1h-1.5c-0.1,0-0.1-0.1-0.1-0.1c-0.7,0.1-1.3-0.2-2-0.1l0,0l-0.9-0.1l0,0c-0.3,0-0.6,0.1-0.8-0.1
	c-0.5,0.1-0.6-0.3-1.1-0.1c0,0,0,0.1-0.1,0.1L69.2,15v0.1c-0.4,0-0.8,0.1-1.1,0.4c-0.4-0.1-0.4,0.4-0.8,0.5v0.1
	c-0.3,0.1-0.4,0.4-0.7,0.6c0.1,0.3-0.2,0.2-0.3,0.3c-0.3,0.4-0.7,0.8-1.1,1.1c0.1,0.2-0.1,0.2-0.2,0.4c-0.3,0.2-0.6,0.4-0.8,0.7
	c0,0.4-0.2,0.6-0.2,0.9c-0.2,0.2-0.5,0.4-0.8,0.5v0.1c0,0.1-0.1,0-0.2,0v0.1c0,0.1-0.1,0-0.2,0v0.1c-0.1,0.1-0.2,0-0.2,0
	c-0.2,0.2-0.4,0.4-0.6,0.6c-0.3,0-0.6,0.2-0.7,0.5c-0.1,0,0,0.3-0.2,0.2c0,0.4,0,0.8,0.1,1.2h0.1c0.1,0.1,0,0.2,0,0.3
	c-0.2,0.2-0.3,0.3-0.6,0.4c0,0.1-0.2,0.1-0.1,0.2L60,24.7c-0.1,0.2-0.3,0.3-0.5,0.5l-0.1,0.1c-0.3,0.1-0.3,0.4-0.6,0.6
	c-0.1,0,0,0.3-0.2,0.3c0,0.3-0.4,0.3-0.3,0.5c-0.6,0.6-1,1.5-1.6,2.3c-0.1,0.3-0.2,0.5-0.4,0.7c-0.4,0.7-0.5,1.6,0,2.3
	c0.1,0.5,0.6,0.6,1,0.8c-0.3,0.6-0.6,1.1-1,1.6h-0.1v0.1c0,0.1,0,0.2-0.2,0.1c-0.1,0.3-0.2,0.5-0.5,0.6c-0.1,0.4-0.1,0.8,0.1,1.1
	c0.1,0.2,0.3,0.2,0.3,0.5H56c0.1,0.3,0.3,0.4,0.5,0.5c0.1,0.1,0,0.2,0.2,0.1c0.1,0,0,0.1,0,0.1c0.3-0.1,0.4,0.1,0.6,0.2
	c0.5-0.1,1.1,0.1,1.5-0.1c0.1,0,0.3-0.3,0.4,0c0,0.3,0.3,0.4,0.3,0.8c0.3,0.4,0.8,0.7,1.3,0.7v0.1h1.6l0.1,0.4
	c0.2,0.5,0.6,0.9,1.1,1c0.1,0.2,0.3,0.1,0.4,0.2c0.5,0.2,0.8-0.1,1.4-0.1c0.3-0.1,0.5-0.3,0.9-0.4v-0.1c0-0.1,0.1,0,0.2,0
	c0.1-0.1,0.2-0.2,0.3-0.3c0.3-0.1,0.6-0.3,0.8-0.6c0.4-0.3,0.9-0.6,1.3-0.9c0.1-0.1,0.1-0.3,0.3-0.3c0.2-0.1,0.3-0.3,0.4-0.5
	c0.4-0.3,0.8-0.5,1.1-0.9c0.6-0.4,1.3-1.2,1.9-1.7c0.1-0.2,0.3-0.3,0.4-0.5c0.3-0.3,0.7-0.5,1.1-0.4V34c0.2-0.1,0.4-0.1,0.5,0v0.1
	c0.2-0.2,0.5-0.1,0.7-0.3c0.5,0.2,0.9-0.3,1.5-0.2v-0.1c0.4,0,0.7-0.1,1-0.2c0.5,0,0.9-0.4,1.4-0.5c0-0.1,0.1-0.1,0.2-0.1v-0.1
	c0.1-0.1,0.2,0,0.3,0v-0.1c0.2-0.1,0.4-0.2,0.7-0.2c0-0.1,0-0.1,0-0.1c0.5-0.3,1-0.6,1.5-0.9c0.7-0.5,1.3-1.2,1.8-1.8
	c0.3-0.3,0.6-0.7,0.8-1c0.2-0.1,0.1-0.4,0.4-0.4c0.2-0.8,0.9-1.1,1.4-1.7h0.1v-0.1c0.2,0,0.1-0.2,0.3-0.1c0.2-0.2,0.4-0.2,0.5-0.4
	c0.2,0,0.3-0.2,0.6-0.2v-0.1c0-0.1,0.1,0,0.2,0c0-0.3,0.4,0,0.4-0.3c0.3,0,0.6,0.1,0.7,0.3c0.3,0.1,0.6,0.2,1,0.3
	c0.3-0.2,0.3,0.2,0.6,0.1v-0.1l0.7-0.1l0,0c0.4-0.1,0.8-0.3,1.2-0.6c0.3-0.4,0.7-0.7,1.1-1h-0.1c0.2-0.3,0.5-0.5,0.8-0.7
	c0.1,0,0-0.2,0.2-0.2c0.1-0.3,0.4-0.5,0.5-0.8C95.2,22.1,94.9,21.8,94.8,21.6z"/>
<path class="st3" d="M87.3,23.8c-0.3-0.3-0.3-0.7-0.6-1.1c-0.1-0.3-0.3-0.6-0.5-0.9c-0.1-0.1-0.1-0.2-0.2-0.4
	c-0.2-0.3-0.4-0.6-0.6-1c-0.3-0.1-0.2-0.6-0.6-0.8c-0.1-0.1-0.1-0.3-0.3-0.4c0-0.3-0.3-0.5-0.4-0.8c-0.4-0.4-0.6-1-1-1.3
	c-0.2-0.4-0.5-0.8-0.8-1.2c-0.3,0-0.4,0.2-0.7,0.3c0,0.3-0.4,0-0.4,0.3h-4.4h-0.2c-0.5-0.1-1-0.1-1.6-0.1c-0.1-0.1-0.3,0-0.4-0.1
	h-1.5c-0.1,0-0.1-0.1-0.1-0.1h-1v-0.1c-0.7,0-1.3,0-2-0.1l0,0c-0.2,0-0.5,0.1-0.7-0.1c-0.1,0.2-0.4,0-0.5,0.1s-0.2,0.1-0.4,0.2
	c-0.1,0.1-0.1,0-0.2,0c-0.3,0.1-0.5,0.3-0.7,0.5c0,0.1-0.1,0-0.2,0c-0.4,0.4-0.7,0.8-1.1,1.3c-0.2,0.2-0.5,0.4-0.6,0.7
	c-0.3,0.2-0.5,0.5-0.8,0.7c-0.1,0.1,0.1,0.3-0.1,0.4c0,0.3-0.4,0.4-0.6,0.6c-0.4,0.3-0.8,0.6-1.2,0.8c-0.1,0.2-0.4,0.2-0.5,0.4
	c0,0,0,0,0,0.1s-0.1,0-0.2,0V22c0,0.1-0.1,0-0.2,0c-0.1,0.2-0.4,0-0.4,0.4c-0.1,0.6,0.4,0.8,0.7,1.2c0.3-0.2,0.5,0.3,0.6,0.2
	c0,0,0.1,0,0,0.1c0.2,0,0.4-0.1,0.4,0.1c0.2,0.1,0.2-0.2,0.4-0.1h0.1V24h0.1v-0.1c0.2,0,0.3-0.2,0.3-0.1c0.1,0,0.1-0.1,0.1-0.1
	s0.1,0,0,0.1l0.1-0.2c0.2,0,0.2-0.2,0.4-0.2c0-0.2,0.2-0.1,0.3-0.2c0.3-0.2,0.5-0.4,0.7-0.7c0.3-0.1,0.4-0.6,0.8-0.7l0,0l0,0h0.2
	c0-0.1,0.1-0.2,0.2-0.1c0-0.3,0.4,0,0.4-0.2c0.2,0,0.4-0.3,0.8-0.2v-0.1c0.2-0.1,0.5-0.2,0.7-0.3c0.1-0.2,0.4-0.2,0.6-0.2v-0.1
	c0-0.1,0.1,0,0.2,0l0.1,0.1c0.3,0,0.3,0.3,0.4,0.6c0.2,0,0.2,0.1,0.3,0.2c0.2,0.1,0.3,0.3,0.5,0.5c0,0.1,0.1,0.1,0.1,0.2
	c0.3,0,0.4,0.3,0.6,0.3c0.1,0.1,0.1,0.2,0.2,0.2c0.3-0.2,0.4,0.3,0.6,0.2c0.1,0,0.2,0.1,0.1,0.2h0.1c0.7-0.2,0.7-0.1,0.7-0.1h0.1
	c0,0,0.1,0,0.1,0.1c0,0,0,0,0,0.1c0.1,0,0.3,0,0.4,0v0.1H74c0.1,0,0.2,0,0.2,0.1c0.1,0,0.4-0.1,0.4,0.1l0.2-0.1
	c0.1,0.3,0.6,0,0.6,0.2l0.1-0.1c0.2,0.2,0.6,0.1,0.8,0c0.1,0.2,0.2,0.4,0.2,0.6c-0.2,0.2-0.1,0.7-0.5,0.7c0,0.2-0.3,0.1-0.5,0.1V25
	c-0.1,0-0.2,0-0.3-0.1V25c-0.2-0.2-0.6-0.1-0.9-0.1c-0.1-0.2-0.4,0-0.6-0.1c-0.3-0.2-0.6-0.3-1-0.3c-0.2-0.2-0.4-0.2-0.6-0.4
	c-0.6-0.1-0.8-0.7-1.3-0.9c-0.1,0,0-0.3-0.2-0.2c-0.3-0.4-0.6-0.5-0.9-0.9c-0.5,0.3-1,0.5-1.5,0.7c-0.1,0.2-0.4,0.2-0.6,0.4
	c-0.2,0-0.2,0.2-0.4,0.2c-0.2,0.3-0.3,0.5-0.6,0.7h-0.1c-0.1,0.3-0.6,0.3-0.7,0.6c-0.5,0-0.9,0.5-1.5,0.3c-0.2,0-0.4,0.2-0.6,0
	c-0.2,0-0.6-0.1-0.7,0.1c-0.4-0.3-1-0.3-1.4-0.7c-0.4,0.2-0.7,0.8-1.2,1.1c-0.5,0.5-1,1-1.4,1.6c-0.1,0.3-0.2,0.5-0.3,0.7
	c-0.4,0.5-0.8,1.1-1.2,1.7c-0.3,0.1-0.2,0.5-0.5,0.7c0,0.2-0.2,0.2-0.2,0.4c0,0.2-0.1,0.5,0.1,0.7c0.2,0.1,0.3,0.3,0.4,0.4
	c0.1,0.1,0.3,0,0.3,0.1c0.2-0.1,0.5-0.1,0.7,0c0.2,0.2,0.4,0.4,0.4,0.7c-0.1,0.4-0.4,0.9-0.6,1.2c-0.3,0.4-0.7,0.8-1.1,1.3
	c-0.1,0.5,0,1.1,0.3,1.6c0.2,0.2,0.7,0.1,0.8,0.2l0.1-0.1c0.2-0.1,0.5-0.1,0.6-0.4c0.4,0,0.4-0.5,0.8-0.4c0.2,0.1,0.3,0.1,0.4,0.2
	c0.4,0.1,0.5,0.5,0.6,0.9c0.1,0.5,0.6,0.7,0.9,1.1c0.3-0.1,0.9,0.2,1-0.2c0.1-0.1,0.2,0,0.2,0c0.2-0.1,0.2-0.3,0.4-0.3
	c0.3-0.3,0.7-0.5,1-0.7c0.3-0.2,0.5-0.4,0.8-0.6c0-0.3,0.4-0.1,0.4-0.4c0-0.1,0.1,0,0.2,0c-0.1-0.3,0.3-0.3,0.4-0.4
	c0-0.1,0.1-0.1,0.1-0.1v-0.1c0.2,0,0.3-0.3,0.5-0.3v-0.1c0-0.1,0.1-0.1,0.2-0.1c0.2-0.5,0.7-0.5,0.9-1c0,0,0-0.1,0.1-0.1
	c0-0.1,0.1-0.2,0.2-0.2c0.1-0.4,0.4-0.7,0.4-1c0.4-0.3,0.8-0.5,1.2-0.8c0.3,0,0.2-0.3,0.4-0.3v-0.1c0.2,0,0.2-0.3,0.4-0.3v-0.1
	c0.2,0,0.2-0.3,0.4-0.4c0.2-0.1,0.5,0,0.6,0.3h0.1c0.4,1-0.8,1.2-1.1,1.8c-0.1,0.1-0.3,0.2-0.4,0.3c-0.4,0-0.6,0.4-0.8,0.7
	c-0.1,0.2-0.2,0.4-0.2,0.6h-0.1c-0.3,0.4-0.7,0.9-1.1,1.2c-0.4,0.2-0.8,0.6-1.1,0.9c-0.2,0.1-0.3,0.2-0.5,0.3
	c-0.1,0.2-0.3,0.1-0.4,0.3c-0.4,0-0.6,0.4-0.8,0.6c-0.2,0-0.2,0.1-0.3,0.1c-0.3,0.2-0.6,0.4-0.9,0.7c-0.2,0.1-0.4,0.2-0.4,0.4
	c0.1,0.3,0.4,0.5,0.6,0.7c0.1,0,0.3-0.1,0.3,0.1c0.3,0,0.6,0,0.9-0.1c0.2-0.2,0.4-0.2,0.6-0.2c0.1-0.2,0.3-0.3,0.5-0.5
	c0.3,0.2,0.2-0.4,0.5-0.2v-0.1c0.3-0.1,0.4-0.3,0.7-0.4c-0.2-0.3,0.3-0.1,0.3-0.3c0.3-0.2,0.3-0.5,0.6-0.7c0.4,0.1,0.5-0.4,0.9-0.4
	c0.2-0.2,0.4-0.4,0.6-0.5c0.2-0.2,0.3-0.3,0.5-0.4c0.1-0.3,0.3-0.4,0.5-0.5c-0.1-0.4,0.5-0.2,0.4-0.6c0.3-0.3,0.4-0.6,0.5-0.9
	c0.1-0.2,0.2-0.5,0.3-0.7c0.2,0,0.3-0.2,0.4,0c0.5-0.1,1-0.1,1.5-0.1c0.1-0.1,0.2,0,0.3,0c0.4-0.2,0.8-0.2,1.2-0.2
	c0-0.3,0.4,0,0.5-0.2c0.5,0,0.9-0.2,1.2-0.3c0.3,0,0.5-0.1,0.7-0.3c0.3,0,0.4-0.2,0.6-0.3c0.4,0.1,0.4-0.3,0.7-0.3
	c0.4-0.2,0.8-0.5,1.2-0.6c0-0.3,0.3,0,0.3-0.2c0.1-0.2,0.2-0.3,0.4-0.3c0.3-0.3,0.6-0.4,0.8-0.7c0.2-0.1,0.4-0.3,0.6-0.4V29
	c0.2-0.1,0.3-0.2,0.4-0.4c0-0.2,0.3-0.1,0.3-0.4c0.2-0.1,0.4-0.3,0.5-0.5c0.1-0.1,0.1-0.2,0.2-0.3c0.3-0.2,0.2-0.7,0.6-0.8
	c0-0.1,0-0.3,0.2-0.2c0.1-0.3,0.4-0.4,0.6-0.6c0-0.1,0.1-0.3,0.2-0.2c0-0.3,0.5-0.1,0.5-0.4l0,0l0.5-0.4c0.3,0.1,0.2-0.3,0.5-0.1
	c0.1-0.3,0.4-0.1,0.6-0.4C87.4,24.2,87.2,24.1,87.3,23.8z M88.8,21.3c-0.2-0.2-0.3-0.5-0.5-0.7c0-0.5-0.6-1-0.8-1.4
	c-0.1-0.6-0.6-0.9-0.7-1.4h-0.1c0-0.3-0.3-0.3-0.3-0.6c-0.2-0.1-0.2-0.4-0.3-0.4c-0.2-0.2-0.2-0.4-0.3-0.7c-0.3-0.2-0.5-0.5-0.7-0.8
	c-0.2,0-0.2-0.3-0.3-0.4c0-0.1-0.1-0.1-0.1-0.2c-0.3-0.1-0.1-0.3-0.3-0.4c-0.2,0-0.1-0.3-0.3-0.3c0.1-0.3-0.6-0.2-0.6-0.1
	c-0.3,0-0.1,0.4-0.3,0.5v0.2c0.1,0.1,0.1,0.2,0.2,0.3c0,0,0.1,0.1,0,0.1c0.2,0,0.1,0.2,0.2,0.2c0.2,0.2,0.3,0.5,0.4,0.7
	c0.4,0.4,0.8,0.9,1,1.4c0.2,0.6,0.6,0.7,0.7,1.2c0.2,0,0.1,0.2,0.2,0.3c0.3,0.1,0.3,0.5,0.5,0.7c0,0.3,0.3,0.2,0.3,0.5
	c0.2,0.2,0.3,0.4,0.4,0.6c0.4,0.8,0.8,1.6,1.2,2.4c0.3,0.3,0.3,0.7,0.5,1l0.2-0.1c0.5,0.1,0.5-0.2,0.7-0.5
	C89.4,22.9,89,22.1,88.8,21.3L88.8,21.3z"/>
<path d="M80.3,20.5c0,0.1,0.1,0.1,0.1,0.1c0.4,0.1,0.8,0.4,0.9,0.8c-0.1,0.2,0.2,0.3,0,0.5c0.3,0.2,0.4,0.6,0.7,0.8
	c0,0.4,0.6,0.7,0.6,1.1c0.2,0.4,0.7,0.9,0.4,1.5c-0.2,0.2-0.4,0.3-0.6,0.3c0-0.1-0.1-0.2-0.2-0.1c-0.2-0.6-0.6-1.1-1-1.6
	c-0.2-0.4-0.4-0.8-0.7-1.1c-0.3-0.2-0.6-0.6-0.9-0.9c-0.2-0.4-0.2-0.8,0-1.1C79.9,20.6,79.9,20.4,80.3,20.5z"/>
<path d="M65.2,25.8L65.2,25.8c0.3,0.3,0.7,0.7,0.5,1.2c-0.1,0-0.1,0-0.2,0l0,0c-0.3-0.1-0.4,0.3-0.6,0c-0.3,0-0.4,0.3-0.5,0.5
	c-0.2,0.2-0.5,0.2-0.5,0.6h-0.1c-0.8,0.8-1.6,1.6-2.3,2.3c-0.2-0.1-0.2,0.3-0.4,0.3c-0.2,0.2-0.3,0.3-0.5,0.5
	c-0.3,0.2-0.4,0.4-0.6,0.5c0,0.3-0.4,0.3-0.6,0.4c0-0.2-0.3,0-0.3-0.2c-0.2-0.2-0.2-0.4-0.2-0.7c0.1,0,0.1-0.2,0.2-0.2
	c0.3-0.2,0.6-0.4,0.8-0.8c0.3,0,0.3-0.4,0.6-0.5s0.4-0.6,0.7-0.7v-0.1c0.3,0,0.3-0.4,0.5-0.5l0.4-0.3c0.2-0.1,0.3-0.3,0.4-0.4
	c0.2,0.1,0.2-0.1,0.2-0.2c0.2-0.2,0.3-0.3,0.5-0.5c0.4-0.4,0.7-0.8,1-1.2c0.1,0,0.2-0.2,0.3-0.3C64.7,25.5,64.9,25.6,65.2,25.8z"/>
<path d="M69,28.4c0.2,0.3,0.2,0.6,0,0.9c-0.2,0.4-0.8-0.1-0.9,0.4l-0.2,0.1c-0.2,0.4-0.7,0.6-0.9,1c-0.3,0-0.3,0.3-0.5,0.4
	c-0.2,0.2-0.5,0.5-0.8,0.6c-0.2,0.2-0.5,0.5-0.7,0.7c-0.1,0-0.1,0-0.2,0v0.1h-0.1v0.1c-0.4,0.2-0.6,0.6-1,0.8c-0.1,0,0,0.1,0,0.2
	c-0.1,0.1-0.3,0-0.3,0.2c-0.1,0-0.1,0-0.1,0V34c-0.1,0-0.1,0-0.1,0c0,0.3-0.5,0.2-0.6,0.5c-0.4,0.3-0.8,0.6-1.1,0.9
	c-0.1,0-0.3-0.1-0.3,0.1h-0.6c-0.2-0.1-0.2-0.4-0.3-0.5c0.1-0.1,0.1-0.3,0.2-0.4c0.1-0.3,0.5-0.2,0.6-0.5c0.1,0,0.2,0,0.2,0
	c0.1-0.1,0.2-0.2,0.3-0.3c0.3-0.2,0.6-0.5,0.9-0.7c0.3-0.1,0.4-0.5,0.8-0.6c0.1-0.2,0.5-0.3,0.6-0.6c0.3-0.2,0.5-0.3,0.7-0.6
	c0.4-0.2,0.6-0.6,1-0.8c0.2-0.3,0.4-0.6,0.7-0.8l0,0c0.4-0.6,1.2-1.1,1.7-1.8C68.3,27.9,68.8,28.1,69,28.4z"/>
<path d="M144.4,20.2c-0.1-0.1,0-0.4-0.2-0.4c-0.1-0.6-0.3-1.1-0.5-1.7c-0.3-0.2-0.1-0.5-0.3-0.8c0-0.1-0.1-0.1-0.1-0.2
	c-0.2-0.4-0.3-0.7-0.4-1c-0.1-0.2-0.2-0.4-0.3-0.6c-0.3-0.4-0.3-1.1-0.8-1.4c0-0.3-0.2-0.6-0.3-0.9c-0.1-0.2-0.3-0.4-0.3-0.6
	c-0.2-0.3-0.3-0.7-0.6-0.8c-0.3-0.2-0.1-0.6-0.4-0.7c0.2-0.6-0.5-0.4-0.5-1c0,0-0.2-0.1-0.1-0.2c-0.1-0.2-0.3-0.3-0.6-0.4
	c-0.1,0.3-0.5,0-0.6,0.2c-0.3-0.2-0.3,0.3-0.7,0.1c-0.2,0.3-0.7,0.2-0.8,0.5c-0.3-0.1-0.3,0.3-0.5,0.3c-0.1,0.4-0.6,0.3-0.8,0.6
	c-0.2,0-0.3,0.2-0.5,0.3v0.1c-0.3,0.1-0.1,0.6-0.5,0.5c-0.2,0.3-0.3,0.7-0.3,1.1c0,0.2,0.3,0.5,0,0.6c-0.3,0.1-0.4,0.4-0.6,0.6
	c-0.4,0.3-0.5,0.9-1,1.1c-0.2,0.2-0.3,0.5-0.2,0.8c-0.2,0.2-0.3,0.4-0.4,0.6s-0.3,0.3-0.5,0.2V17c-0.2,0.1-0.3,0-0.5,0v0.1
	c0,0-0.1,0.1-0.1,0c-0.1-0.2-0.4-0.1-0.6-0.1c-0.1,0.3-0.3-0.1-0.5,0l0,0h-0.1c0,0-0.1-0.1,0-0.1c-0.1,0.1-0.4-0.2-0.5,0.1l-0.1-0.1
	c-0.2,0-0.3,0-0.4,0.1c0-0.1-0.1-0.1-0.1-0.1c-0.2,0-0.4,0-0.5-0.1v-0.1l-0.3,0.1l-0.1-0.1l-0.2,0.1l0,0l-0.6-0.1l0,0l-0.9-0.1
	c-0.2-0.1-0.4-0.1-0.7-0.1c-0.4,0.2-0.9,0.2-1.3,0.3v0.1c-0.4,0-0.5,0.2-0.9,0.1v0c-0.1,0.1-0.2,0-0.3,0v0.1c-0.1,0.1-0.2,0-0.3,0
	v0.1c-0.3,0-0.5,0.1-0.8,0.1v0.1c-0.1,0.1-0.3,0-0.4,0c0,0.3-0.3,0-0.3,0.2c-0.1-0.2-0.1,0.1-0.3,0v0.1c-0.1,0.1-0.2,0-0.3,0
	c-0.2,0.2-0.4,0.2-0.6,0.2V18c0,0.1-0.1,0-0.2,0v0.1c0,0.1-0.1,0-0.2,0v0.1c-0.1,0-0.2,0.1-0.2,0v0.1c-0.2,0-0.2,0.2-0.3,0.3
	c-0.3,0.2-0.4,0.6-0.6,0.8c0,0.4-0.4,0.6-0.4,1c-0.2,0.4-0.4,0.9-0.5,1.4c-0.2,0.2-0.1,0.7-0.5,0.6c-0.2,0.3-0.6,0-0.7,0.4
	c-0.4,0.1-0.7,0.2-1,0.5c-0.1,0-0.3,0.1-0.3,0.2c-0.1,0.1-0.3,0.2-0.4,0.1c0,0.4-0.4,0.3-0.7,0.4c-0.1,0.1-0.2,0.2-0.4,0.2v0.1h-0.1
	v0.1c-0.2,0-0.4,0.2-0.5,0.3c0,0.1-0.1,0-0.2,0c-0.3,0.3-0.6,0.5-1,0.7c0.1,0.3-0.3,0.4-0.5,0.5c-0.2,0.3-2.6,1.5-2.8,1.7
	c-0.3,0-0.2,0.4-0.4,0.4v0.1c-0.3,0.2-0.6,0.4-0.9,0.6c-0.1,0.3-0.4,0.3-0.4,0.6c-0.3,0.1-0.5,0.6-0.8,0.7c-0.2,0.6-0.2,1.3,0,1.9
	c0,0.1,0.1,0.3,0.1,0.4c0.4,0.3,0.6,0.8,1.3,0.8v0.1c0.3,0,0.5,0.2,0.8,0.1c0.2-0.3,3-1.2,3.2-1.6c0.5-0.2,0.9-0.4,1.3-0.7
	c0.3-0.2,0.7-0.4,1.1-0.6c0.3-0.2,0.6-0.4,1-0.5c0.2-0.3,0.5-0.3,0.7-0.6c0.5-0.3,0.9-0.6,1.4-0.9c0.1,0,0,0.1,0,0.2
	c-0.2,0.2-0.4,0.4-0.6,0.6c-0.3,0-0.3,0.6-0.7,0.6c-0.4,0.4-0.9,0.8-1.4,1.2l-0.1,0.1c-0.2,0.2-0.4,0.4-0.7,0.6v0.1
	c0,0.1-0.1,0-0.2,0V32c0,0.1-0.1,0-0.2,0c0,0.2-0.2,0.2-0.3,0.3c0,0.2-0.1,0.3-0.3,0.2c-0.6,0.9-1.3,1.7-2,2.6
	c-0.1,0.3-0.4,0.6-0.7,0.8c0.1,0.2-0.2,0.6,0.1,0.7c0,0.5,0.2,0.9,0.5,1.3c0.2,0.1,0.4,0.3,0.5,0.5h0.2c0.1,0,0.1,0.1,0.1,0.1
	c0.2,0,0.3,0,0.4,0.1v0.1h0.6c0.2-0.3,0.6,0,0.8-0.2c0.2-0.2,0.6-0.1,0.8-0.4c0.2,0.2,0.2-0.3,0.5-0.2v-0.1c0.4-0.2,0.8-0.5,1.1-0.8
	c0.1-0.2,0.3-0.2,0.4-0.3c0.1,0,0.1-0.2,0.3-0.1c0-0.3,0.3-0.3,0.6-0.5V36c0-0.1,0.1,0,0.2,0c0.3-0.4,0.7-0.5,1-0.9
	c0.3,0,0.2-0.5,0.6-0.4c0.2,0.2,0.1,0.7,0.3,0.9c0.1,0.3,0.4,0.6,0.8,0.8c0.1,0.3,0.5,0.1,0.5,0.4l0.3,0.1c0.1,0.5,0.8,0.2,1.1,0.3
	l0.1-0.1c0.3,0.1,0.4-0.2,0.8-0.2c0.2,0.5,0.5,1.3,1.1,1.3c0,0.2,0.3,0,0.3,0.3c0.2,0.1,0.4-0.1,0.5,0.1c0.3,0,0.7,0.1,0.9-0.1
	c0.3,0.1,0.3-0.2,0.5-0.1c0-0.2,0.2-0.3,0.4-0.4c0.2-0.4,0.7-0.5,1-0.9c0.1,0,0-0.3,0.2-0.2c0.1-0.3,0.4-0.3,0.4-0.5
	c0.4-0.3,0.6-0.4,1.1-0.2l0,0c0.1,0,0.5,0.2,0.7,0c0.1,0,0,0.1,0,0.1c0.1-0.3,0.4,0,0.5-0.2c0.3,0.1,0.4-0.3,0.6-0.3
	c0.3-0.1,0.4-0.3,0.7-0.5v-0.1c0-0.1,0.1,0,0.2,0c0.6-0.6,1.4-1.4,2-2c0.2-0.3,0.4-0.5,0.7-0.8c0.1-0.1,0.1-0.2,0.2-0.3
	c0.1-0.2,0.2-0.4,0.5-0.5c0.1-0.3,0.3-0.5,0.5-0.7c0.7-0.8,1.3-1.6,2-2.5c0.1-0.4,0.4-0.4,0.5-0.7c0.5-0.3,1-0.7,1.4-1.2
	c0.5-0.2,0.7-0.8,1.2-1c0-0.2,0.3-0.3,0.4-0.5c0.2,0,0.4-0.2,0.5-0.4c0.1-0.1,0.2-0.2,0.3-0.2l0.1,0.1c0.3,0,0.6,0.1,0.7-0.1
	c0.1,0.2,0.1-0.1,0.2,0c0.1,0,0,0.1,0.1,0c0.2-0.2,0.5-0.1,0.6-0.3c0.3,0.2,0.3-0.2,0.6-0.1v-0.1c0-0.1,0.1,0,0.2,0
	c0.1-0.4,0.8-0.4,0.9-0.9c0-0.2,0.3-0.2,0.2-0.5C144.8,22,144.8,21,144.4,20.2z"/>
<path class="st3" d="M110.8,30.9c-0.1-0.2,0.3-0.1,0.2-0.3c0.3,0,0.4-0.3,0.8-0.4c0.2-0.1,0.5-0.2,0.6-0.4c0,0,0.1,0,0,0.1
	c0-0.2,0.3-0.2,0.4-0.4c0.5,0.1,0.4-0.5,0.8-0.5c0.1-0.3,0.5-0.3,0.6-0.5c0-0.1,0.1,0,0.1,0c0.1-0.2,0.2-0.2,0.3-0.3
	c0.5-0.2,0.6-0.8,1.2-0.8l0.1,0.1c0-0.1,0-0.2,0-0.2c0.4,0.2,0.3-0.4,0.7-0.3v-0.1c0.1-0.1,0.1,0,0.2,0c0.2-0.1,0.1-0.3,0.1-0.5
	c-0.4-0.9-0.6-1.8-0.7-2.7l-0.1,0.1c-0.2,0-0.5,0.1-0.7,0.3c-0.6,0.1-0.9,0.6-1.5,0.8c-0.2,0.4-0.8,0.5-1.1,0.8
	c-0.8,0.2-1,0.8-1.6,1.3c-0.4,0.4-3.3,2-3.8,2.5c-0.1,0.1-0.1,0.3-0.3,0.2c-0.2,0.3-0.7,0.6-0.8,1c-0.1,0.6,0,1.1,0.4,1.6
	c0.3,0,0.6,0.1,0.8,0c0.2-0.1,0.4,0.1,0.5-0.2C108.3,32.2,110.5,30.8,110.8,30.9z M119.9,30.8c-0.5,0.1-1,0.1-1.5,0l0,0h-0.3
	c-0.1,0-0.1-0.1-0.1-0.1c-0.2-0.1-0.4-0.2-0.5-0.4c-0.1-0.2,0-0.7-0.3-0.6c-0.8,0.6-1.5,1.3-2.3,2h-0.1c0,0.3-0.5,0.4-0.7,0.7
	c-0.3,0.1-0.3,0.3-0.6,0.4v0.1c-0.6,0.3-1,0.8-1.3,1.4c-0.4,0.4-0.6,0.9-1.1,1.3c-0.3,0.4-0.8,0.6-0.9,1.2c0.1,0.2,0.2,0.4,0.3,0.6
	c0.1,0,0,0.1,0,0.1c0.2,0,0.3,0.4,0.6,0.3c0.2,0.3,0.7,0.1,1,0.2v-0.1c0.3,0.1,0.5-0.2,0.7-0.3c0-0.2,0.3-0.2,0.4-0.3
	c0.1-0.4,0.6-0.3,0.7-0.6c0.4,0,0.6-0.6,1.1-0.7c0.1-0.1,0-0.3,0.2-0.2c0.3-0.2,0.4-0.5,0.8-0.7c0.3-0.3,0.5-0.5,0.8-0.8
	c0.1-0.1,0.3-0.3,0.4-0.4c0-0.1,0.1,0,0.2,0c0.1-0.4,0.6-0.6,0.8-1c0.3,0,0.3-0.4,0.6-0.4C119.2,31.7,119.5,31.3,119.9,30.8
	L119.9,30.8z M139,23.1c-0.4-0.6-0.8-1.1-1.3-1.5c-0.3-0.6-0.8-0.8-1.1-1.2c-0.2-0.2-0.4-0.3-0.6-0.4c-0.1-0.4-0.6-0.2-0.6-0.6
	c-0.8-0.6-1.6-1.3-2.4-1.8l-0.4,0.4c-0.4,0.1-0.9,0.3-1.2,0.4c-0.8,0.1-1.6,0.1-2.4,0c-0.1,0-0.1-0.1-0.1-0.1l-0.7-0.1v-0.1
	c-0.5,0.1-0.8-0.3-1.3-0.2l0,0c-0.3-0.2-0.8,0.1-1.1-0.2c-0.3,0.1-0.7,0-0.9,0.2c-0.4-0.1-0.5,0.2-1,0.1c-0.2,0.2-0.5,0-0.5,0.2
	c-0.3-0.1-0.5,0.2-0.8,0c0,0.3-0.4,0-0.4,0.2c-0.5,0.1-1,0.2-1.4,0.4c-0.3-0.2-0.3,0.3-0.6,0.1c0,0.3-0.4,0-0.5,0.2
	c-0.4,0.8-0.7,1.6-1.1,2.5c-0.3,0.7-0.7,1.3-1.1,2c0,1.2,0.2,2.4,0.7,3.6v0.1c0.3,0.8,0.4,1.6,0.3,2.4c0.1,0.1,0.2,0.2,0.3,0.2
	c0.1,0,0.1,0,0.1,0.1l0.1-0.1c0,0,0.1,0.1,0,0.1l0.2-0.1c0,0.2,0.2,0.1,0.3,0.1c0.2-0.1,0.6-0.1,0.5-0.5c0.5-0.2,0.4-0.8,0.6-1.2
	h0.1c0-0.3,0.1-0.6,0-0.9c0-0.7-0.1-1.4-0.4-2.1h-0.1c-0.1-0.3-0.1-0.6-0.2-0.9c0.1-0.1,0.2-0.4,0.4-0.4l0.1,0.1
	c0.2-0.7,0.2,0.3,0.6,0.1c-0.2,0.5,0.4,0.4,0.4,0.9c0.2,0.1,0.2-0.1,0.3-0.2c0.3,0.1,0.3-0.2,0.6-0.1c0.1-0.3,0.6-0.1,0.8-0.3
	c0-0.1,0.1-0.1,0.2-0.1c0.2,0.3,0.6,0.4,0.7,0.8l0.1-0.1c0.3,0.2,0.5,0.5,0.9,0.5c0.2,0.3,0.6,0.1,0.8,0.4c0.2,0.1,0.6-0.1,0.8,0.2
	h1.1c0.4,0,0.8-0.2,1.1-0.4l0.1,0.1c0-0.2,0.4-0.1,0.6-0.1v-0.1c0.2-0.1,0.4-0.1,0.5,0v0.1h0.1c0.1,0.3,0.1,0.6,0,0.9
	c-0.2,0.3-0.5,0.4-0.8,0.5c-0.2,0.3-0.6,0.2-0.9,0.3c-0.2-0.2-0.6,0-0.9-0.2c0-0.1-0.2-0.1-0.3-0.2c-0.4,0.1-0.8,0.1-1.2,0V27
	c-0.2,0-0.6,0.1-0.7-0.2c-0.1,0-0.3,0-0.4,0v-0.1c-0.2,0-0.4-0.1-0.5-0.2h-0.1c-0.1,0-0.2,0-0.1-0.1c-0.1,0-0.2,0-0.3-0.2
	c-0.2-0.1-0.4-0.2-0.6-0.4c-0.4,0.2-0.2-0.4-0.5-0.2c-0.2,0.1-0.4,0.2-0.6,0.2c-0.1,0.1-0.2,0.1-0.3,0.1V26c-0.1,0.1-0.2,0-0.3,0
	c0.1,0.4,0.1,0.8,0.1,1.2c0,0.7-0.1,1.4-0.2,2.1c0.7-0.5,1.4-0.9,2.2-1.1c0.1-0.2,0.4,0.1,0.4-0.2c0.3,0.1,0.6-0.1,0.8,0
	c0.2,0,0.6-0.1,0.6,0.2c0.2,0.1,0.4,0.1,0.5,0.2s0.3,0.3,0.3,0.4h0.1c0.1,0.4,0.4,0.6,0.2,1l1.1,0.1c0,0.1,0.1,0.1,0.1,0.1h0.1
	c0.1,0,0.2,0,0.2,0.1c0.3,0.2,0.7,0.1,0.8,0.5c0.4,0.4,0.6,0.9,0.6,1.5c-0.2,0.2-0.2,0.5-0.4,0.7c-0.2,0.2-0.6,0.3-0.9,0.1
	c0.2-0.4,0.1-0.9,0-1.4c-0.4,0-0.2-0.4-0.7-0.3c0-0.3-0.4,0-0.4-0.3l-0.1,0.1c-0.5-0.1-1,0-1.5,0.2c-0.1-0.2-0.2-0.4-0.1-0.5
	c0-0.3,0.2-0.6-0.1-0.8c-0.2-0.1-0.3-0.3-0.5-0.4h-0.8c-0.1,0.1-0.3,0.1-0.4,0.1v0.1c-0.3,0.1-0.7,0.2-0.9,0.5
	c-0.5,0.1-0.9,0.4-1.2,0.7v-0.1c-0.7,0.4-1.3,0.9-1.8,1.5c-0.1,0.1-0.1,0.3-0.3,0.2v0.1c0,0-0.1,0.1-0.1,0c-0.2,0.2-0.3,0.5-0.5,0.5
	c-0.2,0.5-0.5,1.3-0.1,1.9c0.1,0,0.1,0.1,0.1,0.2h0.1v0.1c0,0.1,0,0.2,0.1,0.1c0.1,0,0.1,0.1,0.1,0.1h0.1c0.1,0,0.1,0.1,0.1,0.1h0.2
	c0.1,0.2,0.5,0.1,0.7,0.2c0.1,0.1,0.2-0.2,0.3-0.2c0.1-0.1,0.2,0,0.3,0v-0.1c0-0.1,0.1,0,0.2,0c0.1-0.2,0.5-0.1,0.6-0.4v0.1
	c0.6-0.7,1-1.4,1.6-2c0.2-0.1,0.2-0.5,0.4-0.5v-0.1c0.3-0.1,0.7-0.3,1,0c0.1,0.7-0.7,0.9-0.8,1.4c-0.1,0.2-0.3,0.3-0.3,0.5
	c-0.5,0.2-0.5,0.7-0.8,1.1h-0.1c0,0.3-0.2,0.4-0.4,0.5c0.1,0.4,0.2,0.7,0.5,0.9c0,0.2,0.4,0,0.3,0.3c0.1-0.2,0.4,0.1,0.4-0.1
	c0,0.2,0.2,0.1,0.3,0.2c0.1-0.2,0.4-0.1,0.5-0.2c0.1-0.2,0.3-0.3,0.5-0.3c0-0.1,0.1-0.2,0.2-0.2c0-0.3,0.4-0.4,0.5-0.6
	c0.3-0.1,0.3-0.6,0.7-0.7l0.3-0.5c0.3-0.3,0.4-0.6,0.6-0.8c0.1,0.1,0.3,0.1,0.3,0.3c0.3,0.1,0.4,0.5,0.6,0.4c0.3,0,0.6,0,0.8-0.1
	v-0.1c0-0.1,0.1,0,0.2,0c0.1-0.2,0.3-0.4,0.6-0.5c0.1-0.3,0.4-0.4,0.6-0.6c0.3-0.1,0.4-0.6,0.8-0.7c0.1-0.4,0.5-0.4,0.7-0.8
	c0.1-0.4,0.6-0.6,0.7-0.9c0.2-0.2,0.3-0.5,0.6-0.6c0.2-0.3,0.4-0.6,0.6-0.8c0.2-0.3,0.4-0.5,0.6-0.8c0.2-0.3,0.5-0.7,0.7-1.1
	c0.1-0.2,0.2-0.4,0.3-0.5c0.6-0.2,1-0.8,1.5-1.2c0.3,0.1,0.1-0.3,0.3-0.2v-0.1c0.3,0,0.2-0.4,0.5-0.4c0.1-0.2,0.3-0.4,0.5-0.4
	c0.2-0.3,0.4-0.5,0.6-0.7c0.3-0.1,0.4-0.4,0.6-0.6C139.3,23.6,139.3,23.2,139,23.1L139,23.1z M140.8,21.6c-0.4-0.8-0.8-1.6-1.3-2.4
	c-0.2,0-0.2-0.3-0.3-0.5c-0.2-0.2-0.4-0.4-0.5-0.6c-0.6-0.7-1.1-1.3-1.6-2c-0.4-0.1-0.4-0.4-0.6-0.6c0-0.2-0.3-0.2-0.3-0.5
	c-0.2,0-0.3-0.3-0.4-0.4l-0.1-0.2c-0.2-0.6-0.5,0-0.8,0.1c-0.2,0.4-0.5,0.5-0.8,0.7c-0.2,0-0.3,0.4-0.4,0.4c0,0.1-0.1,0.2-0.1,0.3
	c0.1,0.2,0.6,0.4,0.7,0.6c0.5,0.2,0.8,0.7,1.2,1l0,0c0.1,0.2,0.4,0.2,0.4,0.4c0.2,0.3,0.5,0.5,0.8,0.6c-0.1,0.3,0.4,0.3,0.4,0.5
	c0.4,0.3,0.7,0.6,0.9,1c0.4,0.2,0.6,0.7,1,0.9c0,0.2,0.4,0.2,0.4,0.5c0.4,0.5,0.9,0.9,1.2,1.4c0.3-0.2,0.3-0.4,0.6-0.7
	C141,22,141,21.8,140.8,21.6L140.8,21.6z"/>
</svg>
